<svg width="25" height="26" viewBox="0 0 25 26" fill="none" xmlns="http://www.w3.org/2000/svg">
<path fill-rule="evenodd" clip-rule="evenodd" d="M12.565 0H12.435C11.3112 0 10.375 5.58794e-08 9.6325 0.1C8.8475 0.205 8.13875 0.4375 7.57 1.00625C7 1.57625 6.7675 2.285 6.6625 3.06875C6.59125 3.6025 6.57 4.87625 6.565 5.96875C4.0375 6.0525 2.51875 6.3475 1.465 7.4025C-1.49012e-07 8.86625 0 11.2238 0 15.9375C0 20.6512 -1.49012e-07 23.0087 1.465 24.4725C2.93 25.9362 5.28625 25.9375 10 25.9375H15C19.7137 25.9375 22.0712 25.9375 23.535 24.4725C24.9987 23.0075 25 20.6512 25 15.9375C25 11.2238 25 8.86625 23.535 7.4025C22.4812 6.3475 20.9625 6.0525 18.435 5.97C18.43 4.87625 18.41 3.6025 18.3375 3.07C18.2325 2.285 18 1.57625 17.43 1.0075C16.8612 0.4375 16.1525 0.205 15.3675 0.1C14.625 5.58794e-08 13.6875 0 12.565 0ZM16.56 5.94C16.5538 4.88125 16.5362 3.7425 16.48 3.31875C16.4013 2.7425 16.2675 2.495 16.105 2.3325C15.9425 2.17 15.695 2.03625 15.1175 1.9575C14.515 1.8775 13.705 1.875 12.5 1.875C11.295 1.875 10.485 1.8775 9.88125 1.95875C9.305 2.03625 9.0575 2.17 8.895 2.33375C8.7325 2.4975 8.59875 2.7425 8.52 3.31875C8.46375 3.74375 8.445 4.88125 8.44 5.94C8.93 5.9375 9.45 5.93667 10 5.9375H15C15.5517 5.9375 16.0717 5.93833 16.56 5.94ZM12.5 10C12.7486 10 12.9871 10.0988 13.1629 10.2746C13.3387 10.4504 13.4375 10.6889 13.4375 10.9375V10.95C14.7987 11.2925 15.9375 12.3663 15.9375 13.8538C15.9375 14.1024 15.8387 14.3408 15.6629 14.5167C15.4871 14.6925 15.2486 14.7913 15 14.7913C14.7514 14.7913 14.5129 14.6925 14.3371 14.5167C14.1613 14.3408 14.0625 14.1024 14.0625 13.8538C14.0625 13.3738 13.53 12.7087 12.5 12.7087C11.47 12.7087 10.9375 13.3738 10.9375 13.8538C10.9375 14.3337 11.47 15 12.5 15C14.2312 15 15.9375 16.2 15.9375 18.0212C15.9375 19.5087 14.7987 20.5812 13.4375 20.925V20.9375C13.4375 21.1861 13.3387 21.4246 13.1629 21.6004C12.9871 21.7762 12.7486 21.875 12.5 21.875C12.2514 21.875 12.0129 21.7762 11.8371 21.6004C11.6613 21.4246 11.5625 21.1861 11.5625 20.9375V20.925C10.2013 20.5825 9.0625 19.5087 9.0625 18.0212C9.0625 17.7726 9.16127 17.5342 9.33709 17.3583C9.5129 17.1825 9.75136 17.0837 10 17.0837C10.2486 17.0837 10.4871 17.1825 10.6629 17.3583C10.8387 17.5342 10.9375 17.7726 10.9375 18.0212C10.9375 18.5012 11.47 19.1663 12.5 19.1663C13.53 19.1663 14.0625 18.5012 14.0625 18.0212C14.0625 17.5413 13.53 16.875 12.5 16.875C10.7688 16.875 9.0625 15.675 9.0625 13.8538C9.0625 12.3663 10.2013 11.2925 11.5625 10.95V10.9375C11.5625 10.6889 11.6613 10.4504 11.8371 10.2746C12.0129 10.0988 12.2514 10 12.5 10Z" fill="#3F5028"/>
</svg>
