<svg width="22" height="25" viewBox="0 0 22 25" fill="none" xmlns="http://www.w3.org/2000/svg">
<path d="M15.625 2.9875V21.7375C15.625 23.825 17.05 25 18.6125 25C20.0375 25 21.6 24.0125 21.6 21.7375V3.125C21.6 1.2 20.175 0 18.6125 0C17.05 0 15.625 1.325 15.625 2.9875ZM7.8125 12.5V21.7375C7.8125 23.8375 9.2625 25 10.8 25C12.225 25 13.7875 24.0125 13.7875 21.7375V12.6375C13.7875 10.7125 12.3625 9.5125 10.8 9.5125C9.2375 9.5125 7.8125 10.8375 7.8125 12.5ZM2.9875 19.0375C4.6375 19.0375 5.975 20.375 5.975 22.0125C5.975 22.8048 5.66025 23.5647 5.09998 24.125C4.53972 24.6852 3.77983 25 2.9875 25C2.19517 25 1.43528 24.6852 0.875019 24.125C0.314754 23.5647 0 22.8048 0 22.0125C0 20.375 1.3375 19.0375 2.9875 19.0375Z" fill="#3F5028"/>
</svg>
