<svg width="22" height="25" viewBox="0 0 22 25" fill="none" xmlns="http://www.w3.org/2000/svg">
<path d="M3.75 3.53742C3.75 5.47117 5.9075 7.50992 7.6875 8.86242C8.68625 9.61992 9.185 9.99992 10 9.99992C10.815 9.99992 11.3138 9.61992 12.3125 8.86242C14.0925 7.50867 16.25 5.46992 16.25 3.53742C16.25 0.0499198 12.8125 -1.25383 10 1.44117C7.1875 -1.25383 3.75 0.0499198 3.75 3.53742ZM2.825 24.2349H2.5C1.32125 24.2349 0.7325 24.2349 0.36625 23.8687C2.6077e-07 23.5049 0 22.9149 0 21.7362V20.3462C0 19.6987 -1.30385e-07 19.3749 0.16625 19.0849C0.3325 18.7949 0.58375 18.6499 1.08625 18.3574C4.39375 16.4337 9.09 15.3512 12.2238 17.2199C12.4346 17.3458 12.6221 17.4991 12.7863 17.6799C12.9544 17.8637 13.084 18.0795 13.1674 18.3143C13.2507 18.5491 13.2861 18.7982 13.2714 19.047C13.2567 19.2957 13.1923 19.539 13.0819 19.7623C12.9715 19.9857 12.8174 20.1847 12.6287 20.3474C12.4785 20.4901 12.295 20.5932 12.095 20.6474C12.245 20.6299 12.3888 20.6103 12.5262 20.5887C13.665 20.4074 14.6212 19.7974 15.4962 19.1362L17.7563 17.4299C18.1597 17.1372 18.6453 16.9796 19.1438 16.9796C19.6422 16.9796 20.1278 17.1372 20.5312 17.4299C21.2475 17.9712 21.4675 18.8624 21.0138 19.5899C20.485 20.4374 19.74 21.5212 19.025 22.1837C18.31 22.8462 17.2425 23.4387 16.3725 23.8587C15.4075 24.3249 14.3425 24.5924 13.2588 24.7687C11.0613 25.1237 8.77125 25.0687 6.59625 24.6212C5.3554 24.3658 4.09186 24.2355 2.825 24.2349Z" fill="#3F5028"/>
</svg>
