<svg width="444" height="101" viewBox="0 0 444 101" fill="none" xmlns="http://www.w3.org/2000/svg">
<path d="M363.828 43.2663C367.722 43.2663 369.563 41.4252 370.272 39.6548H381.531C379.548 46.9487 373.883 51.764 364.04 51.764C352.002 51.764 344.708 43.8328 344.708 32.5026C344.708 21.4556 351.86 13.2412 363.403 13.2412C375.795 13.2412 382.098 22.3054 382.098 35.4768H356.038C356.038 40.5754 359.791 43.2663 363.828 43.2663ZM363.403 21.0307C359.083 21.0307 356.038 23.58 356.038 28.6078H370.767C370.767 23.58 367.722 21.0307 363.403 21.0307Z" fill="#060606"/>
<path d="M328.011 27.7581C335.163 29.316 342.244 31.7237 342.244 39.9381C342.244 47.586 336.438 51.764 326.382 51.764C313.423 51.764 308.466 45.9573 308.112 38.5926H318.734C319.088 42.2041 321.496 43.9745 325.957 43.9745C329.144 43.9745 330.914 42.9123 330.914 40.8587C330.914 37.7428 327.515 37.318 321.779 36.0433C315.618 34.6978 308.82 32.4318 308.82 24.8547C308.82 18.269 314.485 13.2412 324.683 13.2412C336.296 13.2412 340.828 19.1188 341.182 25.492H330.56C330.206 22.5887 328.648 21.0307 324.966 21.0307C321.779 21.0307 320.15 22.1638 320.15 23.9341C320.15 26.4834 322.416 26.5542 328.011 27.7581Z" fill="#060606"/>
<path d="M293.431 14.376H304.761V50.6327H293.431V45.3925H293.289C291.377 48.7207 287.837 51.7657 281.393 51.7657C274.382 51.7657 269.637 47.1628 269.637 38.8776V14.376H280.968V35.2661C280.968 40.7188 282.88 42.5599 286.633 42.5599C290.952 42.5599 293.431 40.3647 293.431 35.3369V14.376Z" fill="#060606"/>
<path d="M246.687 51.764C234.578 51.764 227.284 43.762 227.284 32.5026C227.284 21.2432 234.578 13.2412 246.687 13.2412C258.725 13.2412 266.019 21.2432 266.019 32.5026C266.019 43.762 258.725 51.764 246.687 51.764ZM246.687 43.2663C251.644 43.2663 254.689 39.5132 254.689 32.5026C254.689 25.492 251.644 21.7389 246.687 21.7389C241.659 21.7389 238.614 25.492 238.614 32.5026C238.614 39.5132 241.659 43.2663 246.687 43.2663Z" fill="#060606"/>
<path d="M211.257 13.2422C218.905 13.2422 223.65 17.8451 223.65 26.1303V50.632H212.32V29.7419C212.32 24.2892 210.549 22.448 206.442 22.448C202.831 22.448 199.856 24.6433 199.856 29.671V50.632H188.526V0H199.856V19.6155H199.998C201.91 16.2872 205.451 13.2422 211.257 13.2422Z" fill="#060606"/>
<path d="M152.278 27.8994H171.539V37.6009H152.278V27.8994Z" fill="#060606"/>
<path d="M123.8 0H135.13V50.632H123.8V0Z" fill="#060606"/>
<path d="M119.58 22.8731H113.278V37.8857C113.278 41.9929 114.765 41.9929 119.58 41.9929V50.4905C117.527 50.9154 115.756 51.2695 112.57 51.2695C104.285 51.2695 101.948 46.879 101.948 38.7354V22.8731H96.9199V14.3754H101.948V4.24902H113.278V14.3754H119.58V22.8731Z" fill="#060606"/>
<path d="M82.0301 14.3742H93.3603V47.0903C93.3603 59.0578 86.4914 63.1651 75.5152 63.1651C64.0433 63.1651 58.7323 57.2167 57.4576 51.4099H68.7879C69.496 53.3927 71.2664 55.0214 75.2319 55.0214C80.3306 55.0214 82.0301 52.3305 82.0301 46.3113V44.1869H81.8885C80.4722 46.0989 77.2856 48.9314 71.9745 48.9314C62.6979 48.9314 56.7495 41.5668 56.7495 31.0863C56.7495 20.6059 62.6979 13.2412 71.9745 13.2412C77.2856 13.2412 80.4722 16.0738 81.8885 17.9857H82.0301V14.3742ZM74.9487 40.4338C79.5516 40.4338 81.8176 36.9639 81.8176 31.0863C81.8176 25.2088 79.5516 21.7389 74.9487 21.7389C70.3458 21.7389 68.0797 25.2088 68.0797 31.0863C68.0797 36.9639 70.3458 40.4338 74.9487 40.4338Z" fill="#060606"/>
<path d="M41.532 0H52.8622V50.632H41.532V47.0205H41.3904C39.9741 48.9324 36.1502 51.765 30.9099 51.765C21.2792 51.765 15.1184 44.4004 15.1184 32.5036C15.1184 20.6069 21.2792 13.2422 30.9099 13.2422C36.1502 13.2422 39.9741 16.0748 41.3904 17.9867H41.532V0ZM33.8841 43.2673C38.487 43.2673 41.3196 39.585 41.3196 32.5036C41.3196 25.4222 38.487 21.7399 33.8841 21.7399C29.2812 21.7399 26.4486 25.4222 26.4486 32.5036C26.4486 39.585 29.2812 43.2673 33.8841 43.2673Z" fill="#060606"/>
<path d="M6.01919 51.2688C2.62012 51.2688 0 48.932 0 45.2497C0 41.6381 2.62012 39.2305 6.01919 39.2305C9.34744 39.2305 12.0384 41.6381 12.0384 45.2497C12.0384 48.932 9.34744 51.2688 6.01919 51.2688Z" fill="#060606"/>
<path d="M398.001 91.8343V72.9296H401.746V76.9626L401.062 77.3947C401.254 76.7705 401.554 76.1704 401.962 75.5942C402.394 75.0181 402.91 74.514 403.51 74.0818C404.134 73.6257 404.794 73.2656 405.491 73.0016C406.211 72.7375 406.943 72.6055 407.687 72.6055C408.767 72.6055 409.716 72.7855 410.532 73.1456C411.348 73.5057 412.02 74.0458 412.548 74.766C413.077 75.4862 413.461 76.3864 413.701 77.4667L413.125 77.3227L413.377 76.7105C413.641 76.1584 414.001 75.6422 414.457 75.1621C414.937 74.658 415.477 74.2139 416.077 73.8298C416.677 73.4457 417.314 73.1456 417.986 72.9296C418.658 72.7135 419.318 72.6055 419.966 72.6055C421.383 72.6055 422.547 72.8935 423.459 73.4697C424.395 74.0458 425.092 74.9221 425.548 76.0984C426.028 77.2747 426.268 78.739 426.268 80.4915V91.8343H422.523V80.7075C422.523 79.6273 422.379 78.751 422.091 78.0789C421.827 77.3827 421.419 76.8665 420.867 76.5305C420.314 76.1944 419.606 76.0263 418.742 76.0263C418.07 76.0263 417.434 76.1464 416.834 76.3864C416.257 76.6025 415.753 76.9146 415.321 77.3227C414.889 77.7308 414.553 78.2109 414.313 78.763C414.073 79.2912 413.953 79.8793 413.953 80.5275V91.8343H410.208V80.6355C410.208 79.6513 410.064 78.823 409.776 78.1509C409.488 77.4547 409.068 76.9266 408.515 76.5665C407.963 76.2064 407.291 76.0263 406.499 76.0263C405.827 76.0263 405.203 76.1464 404.626 76.3864C404.05 76.6025 403.546 76.9146 403.114 77.3227C402.682 77.7068 402.346 78.1749 402.106 78.727C401.866 79.2552 401.746 79.8313 401.746 80.4555V91.8343H398.001Z" fill="#52504C"/>
<path d="M383.281 92.1942C381.721 92.1942 380.292 91.7621 378.996 90.8979C377.724 90.0336 376.703 88.8573 375.935 87.369C375.167 85.8806 374.783 84.2002 374.783 82.3277C374.783 80.4312 375.167 78.7508 375.935 77.2864C376.727 75.798 377.784 74.6337 379.104 73.7935C380.448 72.9533 381.949 72.5332 383.605 72.5332C384.589 72.5332 385.49 72.6772 386.306 72.9653C387.122 73.2534 387.83 73.6615 388.43 74.1896C389.055 74.6937 389.559 75.2819 389.943 75.9541C390.351 76.6262 390.603 77.3464 390.699 78.1146L389.871 77.8265V72.9293H393.616V91.8341H389.871V87.333L390.735 87.0809C390.591 87.7291 390.291 88.3652 389.835 88.9894C389.403 89.5895 388.839 90.1297 388.142 90.6098C387.47 91.0899 386.714 91.474 385.874 91.7621C385.058 92.0502 384.193 92.1942 383.281 92.1942ZM384.253 88.7733C385.382 88.7733 386.378 88.4973 387.242 87.9451C388.106 87.393 388.779 86.6368 389.259 85.6765C389.763 84.6923 390.015 83.576 390.015 82.3277C390.015 81.1034 389.763 80.0111 389.259 79.0509C388.779 78.0906 388.106 77.3344 387.242 76.7823C386.378 76.2301 385.382 75.9541 384.253 75.9541C383.149 75.9541 382.165 76.2301 381.301 76.7823C380.46 77.3344 379.788 78.0906 379.284 79.0509C378.804 80.0111 378.564 81.1034 378.564 82.3277C378.564 83.576 378.804 84.6923 379.284 85.6765C379.788 86.6368 380.46 87.393 381.301 87.9451C382.165 88.4973 383.149 88.7733 384.253 88.7733Z" fill="#52504C"/>
<path d="M363.012 91.8341V72.9293H366.757V78.8708L366.397 77.4304C366.661 76.5182 367.105 75.69 367.729 74.9458C368.377 74.2016 369.11 73.6135 369.926 73.1814C370.766 72.7493 371.63 72.5332 372.518 72.5332C372.926 72.5332 373.311 72.5692 373.671 72.6412C374.055 72.7132 374.355 72.7973 374.571 72.8933L373.599 76.9263C373.311 76.8063 372.986 76.7103 372.626 76.6382C372.29 76.5422 371.954 76.4942 371.618 76.4942C370.97 76.4942 370.346 76.6262 369.746 76.8903C369.17 77.1304 368.653 77.4785 368.197 77.9346C367.765 78.3667 367.417 78.8828 367.153 79.483C366.889 80.0591 366.757 80.6953 366.757 81.3914V91.8341H363.012Z" fill="#52504C"/>
<path d="M348.81 100.116C347.465 100.116 346.121 99.9001 344.776 99.468C343.456 99.0599 342.388 98.5198 341.572 97.8476L342.94 94.9669C343.42 95.327 343.984 95.6391 344.632 95.9031C345.281 96.1912 345.965 96.4073 346.685 96.5513C347.405 96.7193 348.113 96.8034 348.81 96.8034C350.13 96.8034 351.234 96.5873 352.122 96.1552C353.011 95.7231 353.683 95.0869 354.139 94.2467C354.595 93.4065 354.823 92.3622 354.823 91.1139V87.477L355.219 87.7291C355.099 88.4732 354.703 89.1934 354.031 89.8896C353.383 90.5618 352.566 91.1139 351.582 91.546C350.598 91.9781 349.59 92.1942 348.557 92.1942C346.757 92.1942 345.149 91.7741 343.732 90.9339C342.34 90.0697 341.236 88.9054 340.419 87.441C339.603 85.9526 339.195 84.2602 339.195 82.3637C339.195 80.4672 339.591 78.7868 340.383 77.3224C341.2 75.834 342.304 74.6697 343.696 73.8295C345.113 72.9653 346.697 72.5332 348.449 72.5332C349.17 72.5332 349.866 72.6292 350.538 72.8213C351.21 72.9893 351.834 73.2414 352.41 73.5775C352.987 73.8895 353.503 74.2376 353.959 74.6217C354.415 75.0058 354.787 75.4139 355.075 75.846C355.363 76.2782 355.543 76.6863 355.615 77.0704L354.823 77.3584V72.9293H358.532V90.6818C358.532 92.1942 358.304 93.5265 357.848 94.6788C357.416 95.8551 356.78 96.8394 355.939 97.6316C355.099 98.4478 354.079 99.0599 352.879 99.468C351.678 99.9001 350.322 100.116 348.81 100.116ZM348.954 88.7733C350.13 88.7733 351.174 88.4972 352.086 87.9451C352.999 87.393 353.707 86.6368 354.211 85.6765C354.715 84.7163 354.967 83.612 354.967 82.3637C354.967 81.1154 354.703 80.0111 354.175 79.0509C353.671 78.0666 352.963 77.2984 352.05 76.7463C351.162 76.1941 350.13 75.9181 348.954 75.9181C347.801 75.9181 346.769 76.2061 345.857 76.7823C344.969 77.3344 344.26 78.1026 343.732 79.0869C343.228 80.0471 342.976 81.1394 342.976 82.3637C342.976 83.588 343.228 84.6923 343.732 85.6765C344.26 86.6368 344.969 87.393 345.857 87.9451C346.769 88.4972 347.801 88.7733 348.954 88.7733Z" fill="#52504C"/>
<path d="M327.411 92.1942C325.562 92.1942 323.906 91.7741 322.441 90.9339C321.001 90.0697 319.861 88.9054 319.021 87.441C318.18 85.9526 317.76 84.2602 317.76 82.3637C317.76 80.4672 318.18 78.7868 319.021 77.3224C319.861 75.834 321.001 74.6697 322.441 73.8295C323.906 72.9653 325.562 72.5332 327.411 72.5332C329.235 72.5332 330.868 72.9653 332.308 73.8295C333.772 74.6697 334.925 75.834 335.765 77.3224C336.605 78.7868 337.025 80.4672 337.025 82.3637C337.025 84.2602 336.605 85.9526 335.765 87.441C334.925 88.9054 333.772 90.0697 332.308 90.9339C330.868 91.7741 329.235 92.1942 327.411 92.1942ZM327.411 88.8093C328.539 88.8093 329.547 88.5333 330.435 87.9811C331.324 87.405 332.02 86.6368 332.524 85.6765C333.028 84.6923 333.268 83.588 333.244 82.3637C333.268 81.1154 333.028 80.0111 332.524 79.0509C332.02 78.0666 331.324 77.2984 330.435 76.7463C329.547 76.1941 328.539 75.9181 327.411 75.9181C326.282 75.9181 325.262 76.2061 324.35 76.7823C323.462 77.3344 322.766 78.1026 322.261 79.0869C321.757 80.0471 321.517 81.1394 321.541 82.3637C321.517 83.588 321.757 84.6923 322.261 85.6765C322.766 86.6368 323.462 87.405 324.35 87.9811C325.262 88.5333 326.282 88.8093 327.411 88.8093Z" fill="#52504C"/>
<path d="M305.918 91.8341V72.9293H309.663V78.8708L309.303 77.4304C309.567 76.5182 310.012 75.69 310.636 74.9458C311.284 74.2016 312.016 73.6135 312.832 73.1814C313.672 72.7493 314.537 72.5332 315.425 72.5332C315.833 72.5332 316.217 72.5692 316.577 72.6412C316.961 72.7132 317.261 72.7973 317.477 72.8933L316.505 76.9263C316.217 76.8063 315.893 76.7103 315.533 76.6382C315.197 76.5422 314.861 76.4942 314.525 76.4942C313.876 76.4942 313.252 76.6262 312.652 76.8903C312.076 77.1304 311.56 77.4785 311.104 77.9346C310.672 78.3667 310.324 78.8828 310.06 79.483C309.795 80.0591 309.663 80.6953 309.663 81.3914V91.8341H305.918Z" fill="#52504C"/>
<path d="M283.923 99.7564V72.9296H287.668V77.2506L287.091 76.9266C287.235 76.2064 287.644 75.5222 288.316 74.874C288.988 74.2019 289.804 73.6617 290.764 73.2536C291.749 72.8215 292.757 72.6055 293.789 72.6055C295.494 72.6055 297.006 73.0256 298.326 73.8658C299.647 74.706 300.691 75.8583 301.459 77.3227C302.227 78.787 302.611 80.4675 302.611 82.3639C302.611 84.2364 302.227 85.9168 301.459 87.4052C300.715 88.8696 299.683 90.0339 298.362 90.8981C297.042 91.7383 295.554 92.1584 293.897 92.1584C292.793 92.1584 291.725 91.9424 290.692 91.5103C289.66 91.0541 288.784 90.478 288.064 89.7818C287.343 89.0856 286.899 88.3655 286.731 87.6213L287.668 87.1171V99.7564H283.923ZM293.285 88.7376C294.389 88.7376 295.374 88.4615 296.238 87.9094C297.102 87.3572 297.786 86.601 298.29 85.6408C298.794 84.6805 299.046 83.5883 299.046 82.3639C299.046 81.1396 298.794 80.0594 298.29 79.1231C297.81 78.1629 297.138 77.4067 296.274 76.8545C295.41 76.3024 294.413 76.0263 293.285 76.0263C292.157 76.0263 291.16 76.3024 290.296 76.8545C289.432 77.3827 288.748 78.1269 288.244 79.0871C287.74 80.0474 287.488 81.1396 287.488 82.3639C287.488 83.5883 287.74 84.6805 288.244 85.6408C288.748 86.601 289.432 87.3572 290.296 87.9094C291.16 88.4615 292.157 88.7376 293.285 88.7376Z" fill="#52504C"/>
<path d="M263.792 91.8355V68.1055H267.501V91.8355H263.792ZM259.867 76.5316V72.9307H271.894V76.5316H259.867Z" fill="#52504C"/>
<path d="M240.066 91.8343V70.805C240.066 69.7247 240.306 68.7645 240.786 67.9243C241.266 67.0841 241.926 66.4239 242.767 65.9438C243.607 65.4636 244.579 65.2236 245.683 65.2236C246.452 65.2236 247.172 65.3676 247.844 65.6557C248.516 65.9438 249.056 66.3279 249.464 66.808L248.204 69.6527C247.892 69.3646 247.544 69.1366 247.16 68.9685C246.8 68.7765 246.452 68.6805 246.116 68.6805C245.611 68.6805 245.179 68.7645 244.819 68.9325C244.483 69.0766 244.231 69.3166 244.063 69.6527C243.895 69.9648 243.811 70.3489 243.811 70.805V91.8343H241.939C241.626 91.8343 241.314 91.8343 241.002 91.8343C240.69 91.8343 240.378 91.8343 240.066 91.8343ZM237.041 76.6745V73.2536H248.276V76.6745H237.041ZM252.777 91.8343V72.9295H256.486V91.8343H252.777ZM254.578 68.7525C253.786 68.7525 253.173 68.5484 252.741 68.1403C252.309 67.7322 252.093 67.1561 252.093 66.4119C252.093 65.7157 252.309 65.1516 252.741 64.7195C253.197 64.2873 253.81 64.0713 254.578 64.0713C255.37 64.0713 255.982 64.2753 256.414 64.6834C256.846 65.0915 257.062 65.6677 257.062 66.4119C257.062 67.1081 256.834 67.6722 256.378 68.1043C255.946 68.5364 255.346 68.7525 254.578 68.7525Z" fill="#52504C"/>
<path d="M225.781 92.1942C223.932 92.1942 222.276 91.7741 220.811 90.9339C219.371 90.0697 218.231 88.9054 217.39 87.441C216.55 85.9526 216.13 84.2602 216.13 82.3637C216.13 80.4672 216.55 78.7868 217.39 77.3224C218.231 75.834 219.371 74.6697 220.811 73.8295C222.276 72.9653 223.932 72.5332 225.781 72.5332C227.605 72.5332 229.237 72.9653 230.678 73.8295C232.142 74.6697 233.294 75.834 234.135 77.3224C234.975 78.7868 235.395 80.4672 235.395 82.3637C235.395 84.2602 234.975 85.9526 234.135 87.441C233.294 88.9054 232.142 90.0697 230.678 90.9339C229.237 91.7741 227.605 92.1942 225.781 92.1942ZM225.781 88.8093C226.909 88.8093 227.917 88.5333 228.805 87.9811C229.694 87.405 230.39 86.6368 230.894 85.6765C231.398 84.6923 231.638 83.588 231.614 82.3637C231.638 81.1154 231.398 80.0111 230.894 79.0509C230.39 78.0666 229.694 77.2984 228.805 76.7463C227.917 76.1941 226.909 75.9181 225.781 75.9181C224.652 75.9181 223.632 76.2061 222.72 76.7823C221.832 77.3344 221.135 78.1026 220.631 79.0869C220.127 80.0471 219.887 81.1394 219.911 82.3637C219.887 83.588 220.127 84.6923 220.631 85.6765C221.135 86.6368 221.832 87.405 222.72 87.9811C223.632 88.5333 224.652 88.8093 225.781 88.8093Z" fill="#52504C"/>
<path d="M204.288 91.8341V72.9293H208.033V78.8708L207.673 77.4304C207.937 76.5182 208.381 75.69 209.005 74.9458C209.653 74.2016 210.386 73.6135 211.202 73.1814C212.042 72.7493 212.906 72.5332 213.794 72.5332C214.203 72.5332 214.587 72.5692 214.947 72.6412C215.331 72.7132 215.631 72.7973 215.847 72.8933L214.875 76.9263C214.587 76.8063 214.263 76.7103 213.903 76.6382C213.566 76.5422 213.23 76.4942 212.894 76.4942C212.246 76.4942 211.622 76.6262 211.022 76.8903C210.446 77.1304 209.93 77.4785 209.473 77.9346C209.041 78.3667 208.693 78.8828 208.429 79.483C208.165 80.0591 208.033 80.6953 208.033 81.3914V91.8341H204.288Z" fill="#52504C"/>
<path d="M182.291 99.7564V72.9296H186.035V77.2506L185.459 76.9266C185.603 76.2064 186.011 75.5222 186.684 74.874C187.356 74.2019 188.172 73.6617 189.132 73.2536C190.117 72.8215 191.125 72.6055 192.157 72.6055C193.861 72.6055 195.374 73.0256 196.694 73.8658C198.015 74.706 199.059 75.8583 199.827 77.3227C200.595 78.787 200.979 80.4675 200.979 82.3639C200.979 84.2364 200.595 85.9168 199.827 87.4052C199.083 88.8696 198.051 90.0339 196.73 90.8981C195.41 91.7383 193.921 92.1584 192.265 92.1584C191.161 92.1584 190.093 91.9424 189.06 91.5103C188.028 91.0541 187.152 90.478 186.432 89.7818C185.711 89.0856 185.267 88.3655 185.099 87.6213L186.035 87.1171V99.7564H182.291ZM191.653 88.7376C192.757 88.7376 193.741 88.4615 194.606 87.9094C195.47 87.3572 196.154 86.601 196.658 85.6408C197.162 84.6805 197.414 83.5883 197.414 82.3639C197.414 81.1396 197.162 80.0594 196.658 79.1231C196.178 78.1629 195.506 77.4067 194.642 76.8545C193.777 76.3024 192.781 76.0263 191.653 76.0263C190.525 76.0263 189.528 76.3024 188.664 76.8545C187.8 77.3827 187.116 78.1269 186.612 79.0871C186.107 80.0474 185.855 81.1396 185.855 82.3639C185.855 83.5883 186.107 84.6805 186.612 85.6408C187.116 86.601 187.8 87.3572 188.664 87.9094C189.528 88.4615 190.525 88.7376 191.653 88.7376Z" fill="#52504C"/>
<path d="M160.145 91.8341V72.9293H163.854V76.8183L163.206 77.2504C163.446 76.4102 163.914 75.642 164.61 74.9458C165.306 74.2256 166.135 73.6495 167.095 73.2174C168.055 72.7613 169.039 72.5332 170.048 72.5332C171.488 72.5332 172.688 72.8213 173.648 73.3974C174.609 73.9496 175.329 74.8018 175.809 75.9541C176.289 77.1064 176.529 78.5587 176.529 80.3112V91.8341H172.82V80.5632C172.82 79.483 172.676 78.5947 172.388 77.8986C172.1 77.1784 171.656 76.6622 171.056 76.3502C170.456 76.0141 169.711 75.87 168.823 75.9181C168.103 75.9181 167.443 76.0381 166.843 76.2782C166.243 76.4942 165.714 76.8063 165.258 77.2144C164.826 77.6225 164.478 78.1026 164.214 78.6548C163.974 79.1829 163.854 79.759 163.854 80.3832V91.8341H162.017C161.705 91.8341 161.393 91.8341 161.081 91.8341C160.769 91.8341 160.457 91.8341 160.145 91.8341Z" fill="#52504C"/>
<path d="M147.209 92.1942C145.36 92.1942 143.704 91.7741 142.239 90.9339C140.799 90.0697 139.659 88.9054 138.818 87.441C137.978 85.9526 137.558 84.2602 137.558 82.3637C137.558 80.4672 137.978 78.7868 138.818 77.3224C139.659 75.834 140.799 74.6697 142.239 73.8295C143.704 72.9653 145.36 72.5332 147.209 72.5332C149.033 72.5332 150.665 72.9653 152.106 73.8295C153.57 74.6697 154.722 75.834 155.563 77.3224C156.403 78.7868 156.823 80.4672 156.823 82.3637C156.823 84.2602 156.403 85.9526 155.563 87.441C154.722 88.9054 153.57 90.0697 152.106 90.9339C150.665 91.7741 149.033 92.1942 147.209 92.1942ZM147.209 88.8093C148.337 88.8093 149.345 88.5333 150.233 87.9811C151.122 87.405 151.818 86.6368 152.322 85.6765C152.826 84.6923 153.066 83.588 153.042 82.3637C153.066 81.1154 152.826 80.0111 152.322 79.0509C151.818 78.0666 151.122 77.2984 150.233 76.7463C149.345 76.1941 148.337 75.9181 147.209 75.9181C146.08 75.9181 145.06 76.2061 144.148 76.7823C143.26 77.3344 142.563 78.1026 142.059 79.0869C141.555 80.0471 141.315 81.1394 141.339 82.3637C141.315 83.588 141.555 84.6923 142.059 85.6765C142.563 86.6368 143.26 87.405 144.148 87.9811C145.06 88.5333 146.08 88.8093 147.209 88.8093Z" fill="#52504C"/>
<path d="M111.812 91.8353V66.6289H115.305L130.717 87.2621L130.141 87.5862C130.045 86.9861 129.961 86.3379 129.889 85.6417C129.817 84.9215 129.745 84.1654 129.673 83.3732C129.625 82.5569 129.577 81.7047 129.529 80.8165C129.505 79.9043 129.481 78.956 129.457 77.9718C129.433 76.9875 129.421 75.9673 129.421 74.911V66.6289H133.31V91.8353H129.745L114.585 71.9583L114.981 71.4541C115.101 72.9185 115.197 74.1668 115.269 75.1991C115.365 76.2073 115.437 77.0716 115.485 77.7917C115.557 78.4879 115.605 79.0641 115.629 79.5202C115.653 79.9523 115.665 80.3124 115.665 80.6005C115.689 80.8885 115.701 81.1406 115.701 81.3566V91.8353H111.812Z" fill="#52504C"/>
</svg>
